<mxfile host="app.diagrams.net" agent="Mozilla/5.0 (X11; Linux x86_64; rv:131.0) Gecko/20100101 Firefox/131.0" version="24.8.3">
  <diagram name="Page-1" id="mO7LKURQ1pD79jpcs6tu">
    <mxGraphModel dx="1306" dy="463" grid="1" gridSize="10" guides="1" tooltips="1" connect="1" arrows="1" fold="1" page="1" pageScale="1" pageWidth="850" pageHeight="1100" math="0" shadow="0">
      <root>
        <mxCell id="0" />
        <mxCell id="1" parent="0" />
        <mxCell id="QygWWghfLOBK8v6ZTyjY-2" value="Docker Build" style="whiteSpace=wrap;html=1;fillColor=#FF0080;" vertex="1" parent="1">
          <mxGeometry x="20" y="200" width="120" height="60" as="geometry" />
        </mxCell>
        <mxCell id="QygWWghfLOBK8v6ZTyjY-5" value="&lt;div&gt;Pushed &lt;br&gt;&lt;/div&gt;&lt;div&gt;Registry&lt;/div&gt;&lt;div&gt;github&lt;br&gt;&lt;/div&gt;" style="rhombus;whiteSpace=wrap;html=1;fillColor=#FF0080;" vertex="1" parent="1">
          <mxGeometry x="160" y="190" width="80" height="80" as="geometry" />
        </mxCell>
        <mxCell id="QygWWghfLOBK8v6ZTyjY-6" value="push to branch" style="rhombus;whiteSpace=wrap;html=1;fillColor=#3399FF;" vertex="1" parent="1">
          <mxGeometry x="680" y="190" width="80" height="80" as="geometry" />
        </mxCell>
        <mxCell id="QygWWghfLOBK8v6ZTyjY-7" value="&lt;div&gt;Argo Events&lt;/div&gt;&lt;div&gt;Sensor&lt;br&gt;&lt;/div&gt;" style="whiteSpace=wrap;html=1;fillColor=#FF0080;" vertex="1" parent="1">
          <mxGeometry x="260" y="200" width="120" height="60" as="geometry" />
        </mxCell>
        <mxCell id="QygWWghfLOBK8v6ZTyjY-8" value="&lt;div&gt;Argo Events&lt;/div&gt;&lt;div&gt;k8s Trigger&lt;br&gt;&lt;/div&gt;" style="whiteSpace=wrap;html=1;fillColor=#3399FF;" vertex="1" parent="1">
          <mxGeometry x="400" y="200" width="120" height="60" as="geometry" />
        </mxCell>
        <mxCell id="QygWWghfLOBK8v6ZTyjY-9" value="Github" style="whiteSpace=wrap;html=1;fillColor=#00FF80;" vertex="1" parent="1">
          <mxGeometry x="780" y="200" width="120" height="60" as="geometry" />
        </mxCell>
        <mxCell id="QygWWghfLOBK8v6ZTyjY-10" value="Renovate pod?" style="whiteSpace=wrap;html=1;fillColor=#3399FF;" vertex="1" parent="1">
          <mxGeometry x="550" y="280" width="120" height="60" as="geometry" />
        </mxCell>
        <mxCell id="QygWWghfLOBK8v6ZTyjY-11" value="GitOps CLI (timeboxed)" style="whiteSpace=wrap;html=1;fillColor=#3399FF;" vertex="1" parent="1">
          <mxGeometry x="550" y="200" width="120" height="60" as="geometry" />
        </mxCell>
        <mxCell id="QygWWghfLOBK8v6ZTyjY-12" value="ArgoCD" style="whiteSpace=wrap;html=1;fillColor=#00FF80;" vertex="1" parent="1">
          <mxGeometry x="930" y="200" width="120" height="60" as="geometry" />
        </mxCell>
        <mxCell id="QygWWghfLOBK8v6ZTyjY-13" value="&lt;div&gt;deploy&amp;nbsp;&lt;/div&gt;&lt;div&gt;on k8s&lt;/div&gt;" style="rhombus;whiteSpace=wrap;html=1;fillColor=#00FF80;" vertex="1" parent="1">
          <mxGeometry x="1080" y="190" width="80" height="80" as="geometry" />
        </mxCell>
        <mxCell id="QygWWghfLOBK8v6ZTyjY-14" value="Manually create file in s3 (Minio)" style="whiteSpace=wrap;html=1;fillColor=#FF0080;" vertex="1" parent="1">
          <mxGeometry x="180" y="480" width="120" height="60" as="geometry" />
        </mxCell>
        <mxCell id="QygWWghfLOBK8v6ZTyjY-16" value="&lt;div&gt;output&lt;/div&gt;&lt;div&gt;notification&lt;br&gt;&lt;/div&gt;" style="rhombus;whiteSpace=wrap;html=1;fillColor=#3399FF;" vertex="1" parent="1">
          <mxGeometry x="1020" y="470" width="80" height="80" as="geometry" />
        </mxCell>
        <mxCell id="QygWWghfLOBK8v6ZTyjY-17" value="&lt;div&gt;Argo Events&lt;/div&gt;&lt;div&gt;Sensor&lt;br&gt;&lt;/div&gt;" style="whiteSpace=wrap;html=1;fillColor=#FF0080;" vertex="1" parent="1">
          <mxGeometry x="310" y="480" width="120" height="60" as="geometry" />
        </mxCell>
        <mxCell id="QygWWghfLOBK8v6ZTyjY-18" value="&lt;div&gt;Argo Events&lt;/div&gt;&lt;div&gt;k8s Trigger&lt;br&gt;&lt;/div&gt;" style="whiteSpace=wrap;html=1;fillColor=#3399FF;" vertex="1" parent="1">
          <mxGeometry x="450" y="480" width="120" height="60" as="geometry" />
        </mxCell>
        <mxCell id="QygWWghfLOBK8v6ZTyjY-21" value="container that solves the puzzle" style="whiteSpace=wrap;html=1;fillColor=#3399FF;" vertex="1" parent="1">
          <mxGeometry x="600" y="480" width="120" height="60" as="geometry" />
        </mxCell>
        <mxCell id="QygWWghfLOBK8v6ZTyjY-24" value="Slack" style="whiteSpace=wrap;html=1;fillColor=#FF0080;" vertex="1" parent="1">
          <mxGeometry x="40" y="480" width="120" height="60" as="geometry" />
        </mxCell>
        <mxCell id="QygWWghfLOBK8v6ZTyjY-25" value="&lt;div&gt;Argo Events&lt;/div&gt;&lt;div&gt;Sensor&lt;br&gt;&lt;/div&gt;" style="whiteSpace=wrap;html=1;fillColor=#FF0080;" vertex="1" parent="1">
          <mxGeometry x="740" y="480" width="120" height="60" as="geometry" />
        </mxCell>
        <mxCell id="QygWWghfLOBK8v6ZTyjY-26" value="&lt;div&gt;Argo Events&lt;/div&gt;&lt;div&gt;k8s Trigger&lt;br&gt;&lt;/div&gt;" style="whiteSpace=wrap;html=1;fillColor=#3399FF;" vertex="1" parent="1">
          <mxGeometry x="880" y="480" width="120" height="60" as="geometry" />
        </mxCell>
        <mxCell id="QygWWghfLOBK8v6ZTyjY-27" value="Slack" style="whiteSpace=wrap;html=1;fillColor=#3399FF;" vertex="1" parent="1">
          <mxGeometry x="1120" y="480" width="120" height="60" as="geometry" />
        </mxCell>
        <mxCell id="QygWWghfLOBK8v6ZTyjY-45" value="app-of-apps" style="whiteSpace=wrap;html=1;fillColor=#FF0080;" vertex="1" parent="1">
          <mxGeometry x="60" y="690" width="120" height="60" as="geometry" />
        </mxCell>
        <mxCell id="QygWWghfLOBK8v6ZTyjY-46" value="create Vault resource" style="whiteSpace=wrap;html=1;fillColor=#FF0080;" vertex="1" parent="1">
          <mxGeometry x="190" y="690" width="120" height="60" as="geometry" />
        </mxCell>
        <mxCell id="QygWWghfLOBK8v6ZTyjY-47" value="vault" style="whiteSpace=wrap;html=1;fillColor=#6666FF;" vertex="1" parent="1">
          <mxGeometry x="450" y="690" width="120" height="60" as="geometry" />
        </mxCell>
        <mxCell id="QygWWghfLOBK8v6ZTyjY-48" value="Vault operator" style="whiteSpace=wrap;html=1;fillColor=#6666FF;" vertex="1" parent="1">
          <mxGeometry x="320" y="690" width="120" height="60" as="geometry" />
        </mxCell>
        <mxCell id="QygWWghfLOBK8v6ZTyjY-49" value="TLS / route" style="whiteSpace=wrap;html=1;fillColor=#33FF33;" vertex="1" parent="1">
          <mxGeometry x="450" y="770" width="120" height="60" as="geometry" />
        </mxCell>
        <mxCell id="QygWWghfLOBK8v6ZTyjY-50" value="cert-utils-operator" style="whiteSpace=wrap;html=1;fillColor=#00FF00;" vertex="1" parent="1">
          <mxGeometry x="450" y="850" width="120" height="60" as="geometry" />
        </mxCell>
        <mxCell id="QygWWghfLOBK8v6ZTyjY-51" value="job create default crentials" style="whiteSpace=wrap;html=1;fillColor=#FFFF33;" vertex="1" parent="1">
          <mxGeometry x="590" y="690" width="120" height="60" as="geometry" />
        </mxCell>
        <mxCell id="QygWWghfLOBK8v6ZTyjY-52" value="&lt;font style=&quot;font-size: 18px;&quot;&gt;Deploy Image as a soon as available in registry&lt;/font&gt;" style="text;strokeColor=none;align=center;fillColor=none;html=1;verticalAlign=middle;whiteSpace=wrap;rounded=0;" vertex="1" parent="1">
          <mxGeometry x="20" y="140" width="390" height="30" as="geometry" />
        </mxCell>
        <mxCell id="QygWWghfLOBK8v6ZTyjY-54" value="&lt;font style=&quot;font-size: 18px;&quot;&gt;MinIO sensor use-case&lt;/font&gt;" style="text;strokeColor=none;align=center;fillColor=none;html=1;verticalAlign=middle;whiteSpace=wrap;rounded=0;" vertex="1" parent="1">
          <mxGeometry x="5" y="420" width="390" height="30" as="geometry" />
        </mxCell>
        <mxCell id="QygWWghfLOBK8v6ZTyjY-56" value="&lt;font style=&quot;font-size: 18px;&quot;&gt;Asynchronous K8s Operators use-case&lt;/font&gt;" style="text;strokeColor=none;align=center;fillColor=none;html=1;verticalAlign=middle;whiteSpace=wrap;rounded=0;" vertex="1" parent="1">
          <mxGeometry x="35" y="620" width="390" height="30" as="geometry" />
        </mxCell>
      </root>
    </mxGraphModel>
  </diagram>
</mxfile>
